<?xml version="1.0" encoding="UTF-8" standalone="no"?>
<svg width="1560" height="720" viewBox="0 0 1560 720" xmlns="http://www.w3.org/2000/svg">
  <!-- Background -->
  <rect width="1560" height="720" fill="#0a1420" />
  
  <!-- Header Bar -->
  <rect x="20" y="20" width="1520" height="60" rx="5" fill="#162536" stroke="#3A506B" stroke-width="2" />
  
  <!-- Header Content -->
  <text x="40" y="55" fill="#FFC857" font-family="Arial" font-size="22" font-weight="bold">TCCC.ai</text>
  <circle cx="130" cy="50" r="8" fill="#3DE55C" />
  
  <text x="160" y="55" fill="#D1E3F5" font-family="Arial" font-size="18">MODE: DOCUMENTATION</text>
  <text x="400" y="55" fill="#D1E3F5" font-family="Arial" font-size="18">🔊 AUDIO ACTIVE</text>
  <text x="600" y="55" fill="#D1E3F5" font-family="Arial" font-size="18">🔋 85%</text>
  <text x="700" y="55" fill="#D1E3F5" font-family="Arial" font-size="18">🕒 14:35</text>
  <text x="820" y="55" fill="#D1E3F5" font-family="Arial" font-size="18">SESSION: 00:15:45</text>
  
  <!-- Main Content Columns -->
  <!-- Left Column - Casualty Assessment -->
  <rect x="20" y="100" width="500" height="520" rx="5" fill="#162536" stroke="#3A506B" stroke-width="2" />
  <rect x="20" y="100" width="500" height="40" rx="5" fill="#1D3A5D" />
  <text x="30" y="127" fill="#FFC857" font-family="Arial" font-size="20" font-weight="bold">CASUALTY ASSESSMENT</text>
  
  <!-- Human Figure -->
  <g transform="translate(220, 250)">
    <!-- Head -->
    <ellipse cx="30" cy="30" rx="25" ry="25" fill="none" stroke="#D1E3F5" stroke-width="2" />
    
    <!-- Body -->
    <line x1="30" y1="55" x2="30" y2="200" stroke="#D1E3F5" stroke-width="2" />
    
    <!-- Arms -->
    <line x1="30" y1="80" x2="0" y2="130" stroke="#D1E3F5" stroke-width="2" />
    <line x1="30" y1="80" x2="60" y2="130" stroke="#D1E3F5" stroke-width="2" />
    
    <!-- Legs -->
    <line x1="30" y1="200" x2="10" y2="280" stroke="#D1E3F5" stroke-width="2" />
    <line x1="30" y1="200" x2="50" y2="280" stroke="#D1E3F5" stroke-width="2" />
    
    <!-- Wound Marker -->
    <circle cx="45" cy="240" r="8" fill="#EB5467" />
    <text x="45" y="240" fill="#FFFFFF" font-family="Arial" font-size="12" font-weight="bold" text-anchor="middle">✱</text>
  </g>
  
  <!-- Injury Labels -->
  <text x="85" y="520" fill="#D1E3F5" font-family="Arial" font-size="14">✱ GSW R THIGH</text>
  <text x="85" y="545" fill="#D1E3F5" font-family="Arial" font-size="14">✱ APPLIED CAT TQ</text>
  
  <!-- View Buttons -->
  <rect x="85" y="585" width="150" height="30" rx="5" fill="#1D3A5D" stroke="#3A506B" stroke-width="1" />
  <text x="160" y="605" fill="#D1E3F5" font-family="Arial" font-size="14" font-weight="bold" text-anchor="middle">ANTERIOR VIEW</text>
  
  <rect x="245" y="585" width="160" height="30" rx="5" fill="#1D3A5D" stroke="#3A506B" stroke-width="1" />
  <text x="325" y="605" fill="#D1E3F5" font-family="Arial" font-size="14" font-weight="bold" text-anchor="middle">POSTERIOR VIEW</text>
  
  <!-- Right Column - TCCC Card Form -->
  <rect x="540" y="100" width="1000" height="520" rx="5" fill="#162536" stroke="#3A506B" stroke-width="2" />
  <rect x="540" y="100" width="1000" height="40" rx="5" fill="#1D3A5D" />
  <text x="800" y="127" fill="#FFC857" font-family="Arial" font-size="20" font-weight="bold" text-anchor="middle">TCCC CASUALTY CARD</text>
  
  <!-- Card Form Content -->
  <!-- Casualty Details Section -->
  <text x="560" y="170" fill="#D1E3F5" font-family="Arial" font-size="16" font-weight="bold">CASUALTY DETAILS</text>
  
  <rect x="1430" y="150" width="90" height="25" rx="3" fill="#1D3A5D" stroke="#3A506B" stroke-width="1" />
  <text x="1475" y="168" fill="#D1E3F5" font-family="Arial" font-size="12" font-weight="bold" text-anchor="middle">AUTO-FILL</text>
  
  <!-- First Row of Fields -->
  <rect x="560" y="185" width="240" height="30" rx="3" fill="#1D3A5D" stroke="#3A506B" stroke-width="1" />
  <text x="570" y="205" fill="#AEC5EB" font-family="Arial" font-size="14">NAME: John Smith</text>
  
  <rect x="820" y="185" width="240" height="30" rx="3" fill="#1D3A5D" stroke="#3A506B" stroke-width="1" />
  <text x="830" y="205" fill="#AEC5EB" font-family="Arial" font-size="14">BATTLE ROSTER #: JS4321</text>
  
  <rect x="1080" y="185" width="200" height="30" rx="3" fill="#1D3A5D" stroke="#3A506B" stroke-width="1" />
  <text x="1090" y="205" fill="#AEC5EB" font-family="Arial" font-size="14">EVAC: ●URGENT</text>
  
  <!-- Second Row of Fields -->
  <rect x="560" y="225" width="240" height="30" rx="3" fill="#1D3A5D" stroke="#3A506B" stroke-width="1" />
  <text x="570" y="245" fill="#AEC5EB" font-family="Arial" font-size="14">SERVICE: Army</text>
  
  <rect x="820" y="225" width="240" height="30" rx="3" fill="#1D3A5D" stroke="#3A506B" stroke-width="1" />
  <text x="830" y="245" fill="#AEC5EB" font-family="Arial" font-size="14">UNIT: 3rd BCT, 10th Mtn</text>
  
  <rect x="1080" y="225" width="200" height="30" rx="3" fill="#1D3A5D" stroke="#3A506B" stroke-width="1" />
  <text x="1090" y="245" fill="#AEC5EB" font-family="Arial" font-size="14">TIME: 14:30</text>
  
  <!-- Mechanism of Injury Section -->
  <text x="560" y="285" fill="#D1E3F5" font-family="Arial" font-size="16" font-weight="bold">MECHANISM OF INJURY:</text>
  
  <rect x="560" y="300" width="90" height="25" rx="3" fill="#162536" stroke="#3A506B" stroke-width="1" />
  <text x="575" y="318" fill="#AEC5EB" font-family="Arial" font-size="14">[  ] Artillery</text>
  
  <rect x="660" y="300" width="70" height="25" rx="3" fill="#162536" stroke="#3A506B" stroke-width="1" />
  <text x="675" y="318" fill="#AEC5EB" font-family="Arial" font-size="14">[  ] Blunt</text>
  
  <rect x="740" y="300" width="70" height="25" rx="3" fill="#162536" stroke="#3A506B" stroke-width="1" />
  <text x="755" y="318" fill="#AEC5EB" font-family="Arial" font-size="14">[  ] Burn</text>
  
  <rect x="820" y="300" width="70" height="25" rx="3" fill="#162536" stroke="#3A506B" stroke-width="1" />
  <text x="835" y="318" fill="#AEC5EB" font-family="Arial" font-size="14">[  ] Fall</text>
  
  <rect x="900" y="300" width="100" height="25" rx="3" fill="#162536" stroke="#3A506B" stroke-width="1" />
  <text x="915" y="318" fill="#AEC5EB" font-family="Arial" font-size="14">[  ] Grenade</text>
  
  <rect x="1010" y="300" width="70" height="25" rx="3" fill="#1D3A5D" stroke="#3A506B" stroke-width="1" />
  <text x="1025" y="318" fill="#AEC5EB" font-family="Arial" font-size="14">[●] GSW</text>
  
  <!-- Injury Section -->
  <text x="560" y="355" fill="#D1E3F5" font-family="Arial" font-size="16" font-weight="bold">INJURY: (Mark injuries with an X)</text>
  
  <!-- Tourniquet Sections -->
  <text x="560" y="400" fill="#AEC5EB" font-family="Arial" font-size="14">TQ: ●RIGHT Leg</text>
  <text x="900" y="400" fill="#AEC5EB" font-family="Arial" font-size="14">TQ: ○LEFT Leg</text>
  
  <text x="560" y="425" fill="#AEC5EB" font-family="Arial" font-size="14">TYPE: CAT</text>
  <text x="900" y="425" fill="#AEC5EB" font-family="Arial" font-size="14">TYPE: N/A</text>
  
  <text x="560" y="450" fill="#AEC5EB" font-family="Arial" font-size="14">TIME: 14:30</text>
  <text x="900" y="450" fill="#AEC5EB" font-family="Arial" font-size="14">TIME: N/A</text>
  
  <!-- Signs & Symptoms -->
  <text x="560" y="490" fill="#D1E3F5" font-family="Arial" font-size="16" font-weight="bold">SIGNS & SYMPTOMS:</text>
  <text x="1000" y="490" fill="#AEC5EB" font-family="Arial" font-size="14">TIME: 14:32</text>
  
  <!-- Vital Signs Fields -->
  <rect x="560" y="500" width="240" height="30" rx="3" fill="#1D3A5D" stroke="#3A506B" stroke-width="1" />
  <text x="570" y="520" fill="#AEC5EB" font-family="Arial" font-size="14">Pulse: 110, Radial</text>
  
  <rect x="820" y="500" width="240" height="30" rx="3" fill="#1D3A5D" stroke="#3A506B" stroke-width="1" />
  <text x="830" y="520" fill="#AEC5EB" font-family="Arial" font-size="14">Blood Pressure: 110/70</text>
  
  <rect x="1080" y="500" width="200" height="30" rx="3" fill="#1D3A5D" stroke="#3A506B" stroke-width="1" />
  <text x="1090" y="520" fill="#AEC5EB" font-family="Arial" font-size="14">Resp Rate: 20</text>
  
  <rect x="560" y="540" width="240" height="30" rx="3" fill="#1D3A5D" stroke="#3A506B" stroke-width="1" />
  <text x="570" y="560" fill="#AEC5EB" font-family="Arial" font-size="14">Pulse Ox: 94%</text>
  
  <rect x="820" y="540" width="240" height="30" rx="3" fill="#1D3A5D" stroke="#3A506B" stroke-width="1" />
  <text x="830" y="560" fill="#AEC5EB" font-family="Arial" font-size="14">AVPU: Alert</text>
  
  <rect x="1080" y="540" width="200" height="30" rx="3" fill="#1D3A5D" stroke="#3A506B" stroke-width="1" />
  <text x="1090" y="560" fill="#AEC5EB" font-family="Arial" font-size="14">Pain: 7/10</text>
  
  <!-- Treatments -->
  <text x="560" y="590" fill="#D1E3F5" font-family="Arial" font-size="16" font-weight="bold">TREATMENTS:</text>
  
  <rect x="560" y="605" width="130" height="25" rx="3" fill="#1D3A5D" stroke="#3A506B" stroke-width="1" />
  <text x="575" y="623" fill="#AEC5EB" font-family="Arial" font-size="14">[●] TQ-Extremity</text>
  
  <rect x="700" y="605" width="130" height="25" rx="3" fill="#162536" stroke="#3A506B" stroke-width="1" />
  <text x="715" y="623" fill="#AEC5EB" font-family="Arial" font-size="14">[  ] TQ-Junction</text>
  
  <rect x="840" y="605" width="120" height="25" rx="3" fill="#162536" stroke="#3A506B" stroke-width="1" />
  <text x="855" y="623" fill="#AEC5EB" font-family="Arial" font-size="14">[  ] TQ-Truncal</text>
  
  <rect x="560" y="635" width="100" height="25" rx="3" fill="#1D3A5D" stroke="#3A506B" stroke-width="1" />
  <text x="575" y="653" fill="#AEC5EB" font-family="Arial" font-size="14">[●] IV Access</text>
  
  <rect x="670" y="635" width="180" height="25" rx="3" fill="#1D3A5D" stroke="#3A506B" stroke-width="1" />
  <text x="685" y="653" fill="#AEC5EB" font-family="Arial" font-size="14">[●] Fluid: Hextend 500ml</text>
  
  <rect x="860" y="635" width="150" height="25" rx="3" fill="#162536" stroke="#3A506B" stroke-width="1" />
  <text x="875" y="653" fill="#AEC5EB" font-family="Arial" font-size="14">[  ] Blood Products</text>
  
  <!-- Footer Bar -->
  <rect x="20" y="640" width="1520" height="60" rx="5" fill="#162536" stroke="#3A506B" stroke-width="2" />
  
  <!-- Footer Buttons -->
  <rect x="40" y="650" width="120" height="40" rx="5" fill="#1D3A5D" />
  <text x="100" y="675" fill="#D1E3F5" font-family="Arial" font-size="14" font-weight="bold" text-anchor="middle">MONITORING</text>
  
  <rect x="180" y="650" width="150" height="40" rx="5" fill="#1F4B79" />
  <text x="255" y="675" fill="#D1E3F5" font-family="Arial" font-size="14" font-weight="bold" text-anchor="middle">DOCUMENTATION</text>
  
  <rect x="350" y="650" width="120" height="40" rx="5" fill="#1D3A5D" />
  <text x="410" y="675" fill="#D1E3F5" font-family="Arial" font-size="14" font-weight="bold" text-anchor="middle">REFERENCE</text>
  
  <rect x="650" y="650" width="120" height="40" rx="5" fill="#1D3A5D" />
  <text x="710" y="675" fill="#D1E3F5" font-family="Arial" font-size="14" font-weight="bold" text-anchor="middle">⌨️ KEYBOARD</text>
  
  <rect x="800" y="650" width="120" height="40" rx="5" fill="#1D3A5D" />
  <text x="860" y="675" fill="#D1E3F5" font-family="Arial" font-size="14" font-weight="bold" text-anchor="middle">📋 SAVE CARD</text>
  
  <rect x="1250" y="650" width="270" height="40" rx="5" fill="#B11E1E" />
  <text x="1385" y="675" fill="#FFFFFF" font-family="Arial" font-size="14" font-weight="bold" text-anchor="middle">🚨 EMERGENCY ACTION</text>
</svg>