<?xml version="1.0" encoding="UTF-8" standalone="no"?>
<svg width="512" height="512" viewBox="0 0 512 512" xmlns="http://www.w3.org/2000/svg">
  <defs>
    <linearGradient id="bg-gradient" x1="0%" y1="0%" x2="100%" y2="100%">
      <stop offset="0%" stop-color="#2e7d32" />
      <stop offset="100%" stop-color="#1b5e20" />
    </linearGradient>
    <radialGradient id="center-glow" cx="50%" cy="50%" r="50%" fx="50%" fy="50%">
      <stop offset="0%" stop-color="#ffffff" stop-opacity="0.5" />
      <stop offset="100%" stop-color="#ffffff" stop-opacity="0" />
    </radialGradient>
    <filter id="drop-shadow" x="-20%" y="-20%" width="140%" height="140%">
      <feGaussianBlur in="SourceAlpha" stdDeviation="10" />
      <feOffset dx="0" dy="4" result="offsetblur" />
      <feComponentTransfer>
        <feFuncA type="linear" slope="0.3" />
      </feComponentTransfer>
      <feMerge>
        <feMergeNode />
        <feMergeNode in="SourceGraphic" />
      </feMerge>
    </filter>
  </defs>
  
  <!-- Background -->
  <rect x="0" y="0" width="512" height="512" rx="75" ry="75" fill="url(#bg-gradient)" />
  
  <!-- Center Glow -->
  <circle cx="256" cy="256" r="180" fill="url(#center-glow)" />
  
  <!-- Main Circular Framework -->
  <circle cx="256" cy="256" r="150" fill="none" stroke="#ffffff" stroke-width="10" stroke-opacity="0.6" />
  
  <!-- Pulse Lines -->
  <g stroke="#ffffff" stroke-opacity="0.8" stroke-width="3" fill="none">
    <circle cx="256" cy="256" r="170">
      <animate attributeName="r" values="150;170;150" dur="3s" repeatCount="indefinite" />
      <animate attributeName="stroke-opacity" values="0.8;0.2;0.8" dur="3s" repeatCount="indefinite" />
    </circle>
    <circle cx="256" cy="256" r="190">
      <animate attributeName="r" values="170;190;170" dur="3s" repeatCount="indefinite" />
      <animate attributeName="stroke-opacity" values="0.6;0.1;0.6" dur="3s" repeatCount="indefinite" />
    </circle>
    <circle cx="256" cy="256" r="210">
      <animate attributeName="r" values="190;210;190" dur="3s" repeatCount="indefinite" />
      <animate attributeName="stroke-opacity" values="0.4;0.0;0.4" dur="3s" repeatCount="indefinite" />
    </circle>
  </g>
  
  <!-- Medical Cross Large -->
  <g transform="translate(256, 256) rotate(45)">
    <rect x="-108" y="-25" width="216" height="50" rx="10" ry="10" fill="#ffffff" filter="url(#drop-shadow)" />
    <rect x="-25" y="-108" width="50" height="216" rx="10" ry="10" fill="#ffffff" filter="url(#drop-shadow)" />
  </g>
  
  <!-- Connection Nodes -->
  <g fill="#ffffff" filter="url(#drop-shadow)">
    <circle cx="256" cy="106" r="20" />
    <circle cx="406" cy="256" r="20" />
    <circle cx="256" cy="406" r="20" />
    <circle cx="106" cy="256" r="20" />
  </g>
  
  <!-- Connection Lines -->
  <g stroke="#ffffff" stroke-width="6" stroke-dasharray="10,10" stroke-opacity="0.8">
    <line x1="256" y1="126" x2="256" y2="236" />
    <line x1="386" y1="256" x2="276" y2="256" />
    <line x1="256" y1="386" x2="256" y2="276" />
    <line x1="126" y1="256" x2="236" y2="256" />
  </g>
  
  <!-- Document Icons -->
  <g fill="#ffffff" fill-opacity="0.9" filter="url(#drop-shadow)">
    <!-- Document at top -->
    <path d="M236,76 L276,76 L296,96 L296,136 L236,136 Z" />
    <path d="M276,76 L276,96 L296,96" fill="none" stroke="#2e7d32" stroke-width="2" />
    <path d="M246,96 L266,96 M246,106 L266,106 M246,116 L256,116" stroke="#2e7d32" stroke-width="2" />
    
    <!-- Document at right -->
    <path d="M386,236 L386,276 L366,296 L326,296 L326,236 Z" />
    <path d="M386,276 L366,276 L366,296" fill="none" stroke="#2e7d32" stroke-width="2" />
    <path d="M366,246 L366,266 M356,246 L356,266 M346,246 L346,256" stroke="#2e7d32" stroke-width="2" />
    
    <!-- Document at bottom -->
    <path d="M236,386 L276,386 L296,366 L296,326 L236,326 Z" />
    <path d="M276,386 L276,366 L296,366" fill="none" stroke="#2e7d32" stroke-width="2" />
    <path d="M246,346 L266,346 M246,356 L266,356 M246,366 L256,366" stroke="#2e7d32" stroke-width="2" />
    
    <!-- Document at left -->
    <path d="M76,236 L76,276 L96,296 L136,296 L136,236 Z" />
    <path d="M76,276 L96,276 L96,296" fill="none" stroke="#2e7d32" stroke-width="2" />
    <path d="M106,246 L106,266 M116,246 L116,266 M126,246 L126,256" stroke="#2e7d32" stroke-width="2" />
  </g>
  
  <!-- Small Medical Symbols in Center -->
  <g fill="#1b5e20" opacity="0.9">
    <circle cx="256" cy="256" r="50" />
  </g>
  <path d="M256,226 L256,286 M226,256 L286,256" stroke="#ffffff" stroke-width="12" stroke-linecap="round" />
  
  <!-- Text -->
  <g>
    <text x="256" y="450" font-family="Arial, sans-serif" font-size="32" font-weight="bold" text-anchor="middle" fill="#ffffff" filter="url(#drop-shadow)">TCCC RAG TOOL</text>
    <text x="256" y="480" font-family="Arial, sans-serif" font-size="16" text-anchor="middle" fill="#ffffff" filter="url(#drop-shadow)">Medical Knowledge Retrieval</text>
  </g>
</svg>